# xmcd
#
# Track frame offsets: 
#        150
#        19189
#        34169
#        50825
#        68474
#
# Disc length: 1064 seconds
#
# Revision: 1
# Processed by: cddbd v1.5.2PL0 Copyright (c) Steve Scherf et al.
# Submitted via: ExactAudioCopy v0.99pb5
#
DISCID=3c042605
DTITLE=Lauren Alaina - American Idol Season 10 Highlights
DYEAR=2011
DGENRE=Country
TTITLE0=Like My Mother Does
TTITLE1=Flat on the Floor
TTITLE2=The Climb
TTITLE3=I'm the Only One
TTITLE4=Wild One
EXTD=YEAR: 2011
EXTT0=
EXTT1=
EXTT2=
EXTT3=
EXTT4=
PLAYORDER=
